Coordinates
version=1
nRows=12
nColumns=24
inDegrees=yes

Units are S.I. units (second, meters, Newtons, ...)
Angles are in degrees.

endheader
time	pelvis_tilt	pelvis_list	pelvis_rotation	pelvis_tx	pelvis_ty	pelvis_tz	hip_flexion_r	hip_adduction_r	hip_rotation_r	knee_angle_r	ankle_angle_r	subtalar_angle_r	mtp_angle_r	hip_flexion_l	hip_adduction_l	hip_rotation_l	knee_angle_l	ankle_angle_l	subtalar_angle_l	mtp_angle_l	lumbar_extension	lumbar_bending	lumbar_rotation
      3.56000000	     -8.85730855	      8.48574259	      1.46810913	     -0.83886493	     -0.01652732	      0.63784600	     41.18870113	    -12.78093413	     -3.84153733	    -64.85306029	    -17.68338856	    -17.85203120	     24.04819785	      6.12249658	     12.60652264	     13.52229989	    -14.13804262	     15.46580596	     -8.56224190	    -27.09476338	      7.55516929	    -10.31429937	     -8.69911381
      3.56500000	     -8.84490440	      8.30784764	      1.69958114	     -0.83280413	     -0.01685848	      0.63734993	     41.52999173	    -12.63924116	     -4.03147952	    -63.84013619	    -17.27256570	    -18.11297803	     23.16496016	      5.57365300	     12.42974162	     13.80794096	    -13.91969100	     15.62701603	     -8.53747309	    -26.91280427	      7.41525186	    -10.09059669	     -9.05485725
      3.57000000	     -8.79519676	      8.14154604	      1.85869161	     -0.82678801	     -0.01720646	      0.63701226	     41.81995511	    -12.43114935	     -4.10294235	    -62.76921312	    -16.80812391	    -18.20488798	     22.22863415	      4.99356290	     12.24537100	     14.06387918	    -13.70319234	     15.78790045	     -8.51631599	    -26.71684818	      7.23642644	     -9.87180684	     -9.34786097
      3.57500000	     -8.72867229	      8.01910027	      2.02533136	     -0.82070928	     -0.01759867	      0.63666913	     42.06847516	    -12.28330881	     -4.16867616	    -61.65795467	    -16.32101062	    -18.18335393	     21.30301174	      4.37244889	     12.09586540	     14.29795869	    -13.44764124	     15.95468704	     -8.43770715	    -26.47853922	      7.04808929	     -9.69457966	     -9.59003087
      3.58000000	     -8.68229751	      7.89420536	      2.16688228	     -0.81466921	     -0.01804182	      0.63638524	     42.30915219	    -12.09454427	     -4.15707950	    -60.46756665	    -15.88199327	    -18.09920401	     20.68975630	      3.79345978	     11.93886805	     14.47708665	    -13.21678472	     16.11287037	     -8.36943103	    -26.25655669	      6.87556317	     -9.51183739	     -9.85425570
      3.58500000	     -8.63076981	      7.78277323	      2.29397550	     -0.80860399	     -0.01850967	      0.63613691	     42.51172116	    -11.90739843	     -4.11385126	    -59.21161183	    -15.46405938	    -17.95978596	     20.21869948	      3.20458581	     11.78658291	     14.63137792	    -12.97642128	     16.26585555	     -8.27452285	    -26.03322099	      6.70203730	     -9.33990179	    -10.08121987
      3.59000000	     -8.56002649	      7.68907765	      2.41318167	     -0.80252756	     -0.01899338	      0.63587777	     42.66228406	    -11.73383254	     -4.04182966	    -57.90036170	    -15.04024867	    -17.76149442	     19.80166572	      2.59599989	     11.64680948	     14.76067280	    -12.73863275	     16.41164918	     -8.13178050	    -25.77504235	      6.50662237	     -9.17058951	    -10.29897353
      3.59500000	     -8.48288141	      7.60155075	      2.48485712	     -0.79639580	     -0.01950215	      0.63575609	     42.78210616	    -11.52245857	     -3.92823092	    -56.54639047	    -14.59449622	    -17.54139696	     19.10306823	      1.97290523	     11.49448124	     14.81713870	    -12.47352318	     16.46068916	     -7.97405186	    -25.20601450	      6.31711760	     -9.00843904	    -10.42461297
      3.60000000	     -8.54795513	      7.52983880	      2.60212782	     -0.79030001	     -0.02019953	      0.63552817	     43.02264368	    -11.35012948	     -3.75675134	    -55.12309437	    -14.26742165	    -17.29236162	     19.09033528	      1.52813397	     11.37849036	     14.92014176	    -12.27172084	     16.63749630	     -7.81167098	    -25.05272735	      6.26875748	     -8.86457850	    -10.61437541
      3.60500000	     -8.44670453	      7.44080493	      2.71653599	     -0.78411970	     -0.02068470	      0.63530718	     43.02124013	    -11.19330377	     -3.65535932	    -53.63578802	    -13.86604863	    -16.91543148	     18.96354977	      0.88814532	     11.21868948	     14.91922325	    -12.03464023	     16.80799986	     -7.50368598	    -24.78905821	      6.04747274	     -8.69578519	    -10.82181187
      3.61000000	     -8.29410689	      7.37858510	      2.79510509	     -0.77803947	     -0.02118067	      0.63523743	     42.95250772	    -11.00841568	     -3.47467464	    -52.12031774	    -13.45477354	    -16.63983202	     18.56396721	      0.22553531	     11.07211805	     14.81917543	    -11.83826463	     16.93921452	     -7.11740360	    -24.26098457	      5.74471760	     -8.55567239	    -11.02526004
      3.61500000	     -8.25384954	      7.26601330	      2.83136913	     -0.77175957	     -0.02178889	      0.63524100	     42.96177654	    -10.74895165	     -3.30693873	    -50.55599814	    -13.04009442	    -16.40750883	     17.87264573	     -0.31831265	     10.86398102	     14.55569608	    -11.61598915	     16.86284988	     -6.71530533	    -23.02734683	      5.60804707	     -8.35662458	    -11.12415146
